<svg xmlns="http://www.w3.org/2000/svg" width="24" height="24" viewBox="0 0 24 24">
    <path fill="#222A32" fill-rule="nonzero" d="M17.46 13.2c.9 0 1.692-.492 2.1-1.236l4.296-7.788A1.195 1.195 0 0 0 22.812 2.4H5.052L3.924 0H0v2.4h2.4l4.32 9.108-1.62 2.928C4.224 16.044 5.376 18 7.2 18h14.4v-2.4H7.2l1.32-2.4h8.94zM6.192 4.8h14.58l-3.312 6H9.036l-2.844-6zM7.2 19.2a2.397 2.397 0 0 0-2.388 2.4c0 1.32 1.068 2.4 2.388 2.4 1.32 0 2.4-1.08 2.4-2.4 0-1.32-1.08-2.4-2.4-2.4zm12 0a2.397 2.397 0 0 0-2.388 2.4c0 1.32 1.068 2.4 2.388 2.4 1.32 0 2.4-1.08 2.4-2.4 0-1.32-1.08-2.4-2.4-2.4z"/>
</svg>
