<svg width="34px" height="34px" viewBox="0 0 34 34" version="1.1" xmlns="http://www.w3.org/2000/svg" xmlns:xlink="http://www.w3.org/1999/xlink">
    <g id="Symbols" stroke="none" stroke-width="1" fill="none" fill-rule="evenodd">
        <g id="footer/desktop" transform="translate(-1222.000000, -27.000000)" fill="#FFFFFF">
            <g id="icons/newsletter" transform="translate(1222.000000, 27.000000)">
                <g id="magazine">
                    <path d="M33.0039062,4.05078125 L9.86288455,4.05078125 C9.41334532,1.80126953 7.42790224,0 4.98046875,0 C2.22720334,0 0,2.2933502 0,5.046875 L0,29.0195312 C0,31.7657929 2.23420714,34 4.98046875,34 L29.0195312,34 C29.5697174,34 30.015625,33.5540924 30.015625,33.0039062 L30.015625,30.015625 L33.0039062,30.015625 C33.5540924,30.015625 34,29.5697174 34,29.0195312 L34,5.046875 C34,4.49668886 33.5540924,4.05078125 33.0039062,4.05078125 Z M1.9921875,5.046875 C1.9921875,3.39112852 3.36051943,1.9921875 4.98046875,1.9921875 C6.60041807,1.9921875 7.96875,3.39112852 7.96875,5.046875 L7.96875,25.0374908 C7.13581846,24.4110412 6.10055545,24.0390625 4.98046875,24.0390625 C3.86038205,24.0390625 2.82511904,24.4110412 1.9921875,25.0374908 L1.9921875,5.046875 Z M28.0234375,32.0078125 L4.98046875,32.0078125 C3.33276367,32.0078125 1.9921875,30.6672363 1.9921875,29.0195313 C1.9921875,27.3718262 3.33276367,26.03125 4.98046875,26.03125 C6.62817383,26.03125 7.96875,27.3718262 7.96875,29.0195313 C7.96875,29.5697174 8.41465761,30.015625 8.96484375,30.015625 L28.0234375,30.015625 L28.0234375,32.0078125 Z M32.0078125,28.0234375 C31.147644,28.0234375 11.5430145,28.0234375 9.9609375,28.0234375 L9.9609375,6.04296875 L32.0078125,6.04296875 L32.0078125,28.0234375 Z" id="Shape" fill-rule="nonzero"></path>
                    <path d="M22.78,14.28 L28.9,14.28 C29.4633906,14.28 29.92,13.8233906 29.92,13.26 L29.92,9.18 C29.92,8.61660939 29.4633906,8.16 28.9,8.16 L22.78,8.16 C22.2166094,8.16 21.76,8.61660939 21.76,9.18 L21.76,13.26 C21.76,13.8233906 22.2166094,14.28 22.78,14.28 Z M23.8,10.2 L27.88,10.2 L27.88,12.24 L23.8,12.24 L23.8,10.2 Z" id="Shape" fill-rule="nonzero"></path>
                    <path d="M13.2432787,10.2 L19.3967213,10.2 C19.950876,10.2 20.4,9.74339061 20.4,9.18 C20.4,8.61660939 19.950876,8.16 19.3967213,8.16 L13.2432787,8.16 C12.689124,8.16 12.24,8.61660939 12.24,9.18 C12.24,9.74339061 12.689124,10.2 13.2432787,10.2 Z" id="Path" fill-rule="nonzero"></path>
                    <path d="M13.2432787,14.28 L19.3967213,14.28 C19.950876,14.28 20.4,13.8233906 20.4,13.26 C20.4,12.6966094 19.950876,12.24 19.3967213,12.24 L13.2432787,12.24 C12.689124,12.24 12.24,12.6966094 12.24,13.26 C12.24,13.8233906 12.689124,14.28 13.2432787,14.28 Z" id="Path" fill-rule="nonzero"></path>
                    <path d="M12.5725,18.36 L28.9075,18.36 C29.466748,18.36 29.92,17.9033906 29.92,17.34 C29.92,16.7766094 29.466748,16.32 28.9075,16.32 L12.5725,16.32 C12.013252,16.32 11.56,16.7766094 11.56,17.34 C11.56,17.9033906 12.013252,18.36 12.5725,18.36 Z" id="Path" fill-rule="nonzero"></path>
                    <path d="M12.5725,21.76 L28.9075,21.76 C29.466748,21.76 29.92,21.3033906 29.92,20.74 C29.92,20.1766094 29.466748,19.72 28.9075,19.72 L12.5725,19.72 C12.013252,19.72 11.56,20.1766094 11.56,20.74 C11.56,21.3033906 12.013252,21.76 12.5725,21.76 Z" id="Path" fill-rule="nonzero"></path>
                    <path d="M12.5725,25.84 L28.9075,25.84 C29.466748,25.84 29.92,25.3833906 29.92,24.82 C29.92,24.2566094 29.466748,23.8 28.9075,23.8 L12.5725,23.8 C12.013252,23.8 11.56,24.2566094 11.56,24.82 C11.56,25.3833906 12.013252,25.84 12.5725,25.84 Z" id="Path" fill-rule="nonzero"></path>
                </g>
            </g>
        </g>
    </g>
</svg>