<svg width="11px" height="19px" viewBox="0 0 11 19" version="1.1" xmlns="http://www.w3.org/2000/svg" xmlns:xlink="http://www.w3.org/1999/xlink">
    <g id="Style-guide" stroke="none" stroke-width="1" fill="none" fill-rule="evenodd">
        <g id="Atoms" transform="translate(-913.000000, -475.000000)" fill="#ffffff" fill-rule="nonzero">
            <g id="Icons" transform="translate(128.000000, 311.000000)">
                <g id="icons/arrow-right/white-copy" transform="translate(681.000000, 174.000000) rotate(-90.000000) translate(-681.000000, -174.000000) translate(671.500000, 59.500000)">
                    <path d="M11.3317328,223.760719 L14.7552832,215.297859 C14.8232643,215.127088 14.763315,214.932019 14.6111616,214.8289 C14.4590083,214.725782 14.2556103,214.742375 14.1221814,214.86879 L5.1207341,223.478674 C5.04361194,223.552533 5,223.654685 5,223.761469 C5,223.868254 5.04361194,223.970406 5.1207341,224.044265 L14.1221814,232.654149 C14.2556103,232.780564 14.4590083,232.797157 14.6111616,232.694038 C14.763315,232.59092 14.8232643,232.395851 14.7552832,232.22508 L11.4922586,224.161284 L11.3317328,223.760719 Z" id="back-copy-2" transform="translate(9.891544, 223.761469) rotate(-270.000000) translate(-9.891544, -223.761469) "></path>
                </g>
            </g>
        </g>
    </g>
</svg>