
<svg width="56px" height="56px" viewBox="0 0 56 56" version="1.1" xmlns="http://www.w3.org/2000/svg" xmlns:xlink="http://www.w3.org/1999/xlink">
    <g id="Symbols" stroke="none" stroke-width="1" fill="none" fill-rule="evenodd">
        <g id="component/newsletter/home" transform="translate(-145.000000, -42.000000)" fill="#12AA54" fill-rule="nonzero">
            <g id="icons:newsletter-1" transform="translate(145.000000, 42.000000)">
                <g id="icon/newsletter" transform="translate(0.003000, 0.000000)">
                    <path d="M13.231,56 L13.231,19.8 L55.997,19.8 L55.997,56 L13.231,56 Z M19.794,49.327 L49.325,49.327 L49.325,46.046 L19.797,46.046 L19.794,49.327 Z M19.794,42.765 L49.325,42.765 L49.325,39.484 L19.797,39.484 L19.794,42.765 Z M36.2,36.202 L49.325,36.202 L49.325,32.921 L36.197,32.921 L36.2,36.202 Z M19.794,36.202 L32.919,36.202 L32.919,26.358 L19.797,26.358 L19.794,36.202 Z M36.2,29.639 L49.325,29.639 L49.325,26.358 L36.197,26.358 L36.2,29.639 Z M-2.23820962e-13,49.327 L-2.23820962e-13,9.843 L49.328,9.843 L49.328,16.515 L9.953,16.515 L9.953,49.327 L-2.23820962e-13,49.327 Z M23.079,32.921 L23.079,29.64 L29.641,29.64 L29.641,32.921 L23.079,32.921 Z M36.204,6.562 L36.204,0 L49.329,0 L49.329,6.563 L36.204,6.562 Z M0.004,6.562 L0.004,0 L32.926,0 L32.926,6.563 L0.004,6.562 Z" id="Union_1"></path>
                </g>
            </g>
        </g>
    </g>
</svg>