<svg width="30px" height="20px" viewBox="0 0 30 20" version="1.1" xmlns="http://www.w3.org/2000/svg" xmlns:xlink="http://www.w3.org/1999/xlink">
    <g id="Symbols" stroke="none" stroke-width="1" fill="none" fill-rule="evenodd">
        <g id="reviews/next-steps" transform="translate(-533.000000, -84.000000)" fill="#FFFFFF" fill-rule="nonzero">
            <g id="buttons/outline-copy-4" transform="translate(422.000000, 71.000000)">
                <g id="Group-9">
                    <g id="icons/test-drive" transform="translate(111.000000, 13.000000)">
                        <path d="M27.8551515,6.20545455 C27.8351515,6.18242424 27.8181818,6.16 27.7945455,6.13757576 L26.7539394,5.13333333 C27.6169697,4.93757576 28.5460606,4.21454545 28.5460606,3.47272727 C28.5460606,2.60848485 27.3466667,2.30181818 26.3230303,2.30181818 C25.2527273,2.30181818 25.1284848,3.03515152 25.1157576,3.55333333 L22.4309091,0.964848485 C21.8854545,0.424848485 20.8509091,2.66453526e-14 20.0775758,2.66453526e-14 L14.8484848,2.66453526e-14 L14.8472727,2.66453526e-14 L9.6169697,2.66453526e-14 C8.84424242,2.66453526e-14 7.81030303,0.424848485 7.26424242,0.964848485 L4.58,3.55333333 C4.56606061,3.03515152 4.44181818,2.30181818 3.37272727,2.30181818 C2.34787879,2.30181818 1.14909091,2.60848485 1.14909091,3.47272727 C1.14909091,4.21454545 2.07878788,4.93757576 2.94181818,5.13333333 L1.90121212,6.13757576 C1.87757576,6.16 1.86121212,6.18242424 1.84060606,6.20545455 C0.727272727,7.1569697 -1.58095759e-13,8.92181818 -1.58095759e-13,10.2024242 L-1.58095759e-13,14.0078788 C-1.58095759e-13,14.9315152 0.364242424,15.769697 0.952727273,16.3945455 L0.952727273,17.870303 C0.952727273,18.7333333 1.67515152,19.4369697 2.56363636,19.4369697 L4.51151515,19.4369697 C5.4,19.4369697 6.12181818,18.7345455 6.12181818,17.870303 L6.12181818,17.4927273 L14.8472727,17.4927273 L14.8484848,17.4927273 L23.5733333,17.4927273 L23.5733333,17.870303 C23.5733333,18.7345455 24.2945455,19.4369697 25.1842424,19.4369697 L27.1315152,19.4369697 C28.0206061,19.4369697 28.7418182,18.7333333 28.7418182,17.870303 L28.7418182,16.3945455 C29.3309091,15.769697 29.6945455,14.9315152 29.6945455,14.0078788 L29.6945455,10.2024242 C29.6957576,8.92181818 28.9684848,7.1569697 27.8551515,6.20545455 Z M8.25030303,2.11515152 C8.62787879,1.80060606 9.28787879,1.56181818 9.6169697,1.56181818 L14.8472727,1.56181818 L14.8484848,1.56181818 L20.0787879,1.56181818 C20.4078788,1.56181818 21.0678788,1.80060606 21.4454545,2.11515152 L24.9660606,5.52727273 L14.8484848,5.52727273 L14.8472727,5.52727273 L4.73030303,5.52727273 L8.25030303,2.11515152 Z M1.20787879,9.62666667 C1.20787879,8.68969697 1.94121212,7.92909091 2.84666667,7.92909091 C3.75151515,7.92909091 6.70848485,9.66484848 6.70848485,10.6018182 C6.70848485,11.5387879 3.75151515,11.3218182 2.84666667,11.3218182 C1.94121212,11.3218182 1.20787879,10.5642424 1.20787879,9.62666667 Z M6.12242424,15.8242424 L5.81030303,15.8242424 L5.49818182,15.8242424 L3.64666667,15.8272727 C3.13272727,15.6672727 2.77030303,15.4806061 2.51393939,15.28 C2.38424242,15.1787879 2.28484848,15.0733333 2.20727273,14.9684848 C2.12909091,14.8624242 2.07212121,14.7581818 2.03515152,14.6539394 C1.80484848,14.0030303 2.28060606,13.4048485 2.28060606,13.4048485 L5.44060606,13.4048485 L7.54727273,15.8230303 L6.12242424,15.8242424 Z M19.3915152,15.8254545 L14.8484848,15.8254545 L14.8472727,15.8254545 L10.3042424,15.8254545 C9.3569697,15.8254545 8.58787879,15.0563636 8.58787879,14.109697 L14.8472727,14.109697 L14.8484848,14.109697 L21.1078788,14.109697 C21.1078788,15.0575758 20.3387879,15.8254545 19.3915152,15.8254545 Z M19.790303,12.9387879 L14.8484848,12.9387879 L14.8472727,12.9387879 L9.90545455,12.9387879 C8.87515152,12.9387879 8.03878788,11.6684848 8.03878788,10.1018182 L14.8472727,10.1018182 L14.8484848,10.1018182 L21.6569697,10.1018182 C21.6569697,11.6690909 20.8206061,12.9387879 19.790303,12.9387879 Z M27.6612121,14.6551515 C27.6236364,14.7593939 27.5666667,14.8636364 27.4884848,14.9690909 C27.4115152,15.0739394 27.3121212,15.1793939 27.1818182,15.2806061 C26.9260606,15.4812121 26.5630303,15.6690909 26.0490909,15.8278788 L24.1975758,15.8248485 L23.8854545,15.8248485 L23.5733333,15.8248485 L22.1472727,15.8248485 L24.2551515,13.4066667 L27.4145455,13.4066667 C27.4145455,13.4060606 27.8909091,14.0030303 27.6612121,14.6551515 Z M26.8490909,11.3218182 C25.9448485,11.3218182 22.9878788,11.5375758 22.9878788,10.6018182 C22.9878788,9.66606061 25.9448485,7.92909091 26.8490909,7.92909091 C27.7545455,7.92909091 28.4878788,8.68969697 28.4878788,9.62666667 C28.4878788,10.5630303 27.7545455,11.3218182 26.8490909,11.3218182 Z" id="Shape"></path>
                    </g>
                </g>
            </g>
        </g>
    </g>
</svg>