<svg xmlns="http://www.w3.org/2000/svg" width="21" height="20" viewBox="0 0 21 20">
    <g fill="#000" fill-rule="nonzero">
        <path d="M.258 6.519h4.486v13.473H.258zM19.469 7.75c-.943-1.03-2.19-1.544-3.739-1.544-.571 0-1.09.07-1.557.211-.467.14-.86.338-1.183.591a5.8 5.8 0 0 0-.768.707c-.18.207-.357.447-.53.72V6.519H7.219l.014.652c.009.436.013 1.777.013 4.025 0 2.247-.009 5.18-.027 8.796h4.473v-7.519c0-.462.05-.829.15-1.1.19-.463.477-.85.863-1.163.385-.313.863-.47 1.434-.47.78 0 1.353.27 1.72.81.367.539.55 1.284.55 2.236v7.205h4.474V12.27c0-1.985-.472-3.492-1.414-4.52zM2.529.034c-.752 0-1.362.22-1.829.66-.467.439-.7.994-.7 1.665 0 .661.227 1.214.68 1.658.453.444 1.051.666 1.794.666h.027c.762 0 1.376-.222 1.843-.666.466-.444.695-.997.686-1.658-.009-.671-.24-1.226-.693-1.666-.453-.44-1.056-.66-1.808-.66z"/>
    </g>
</svg>
