<svg xmlns="http://www.w3.org/2000/svg" width="20" height="24" viewBox="0 0 20 24">
    <g fill="#393939" fill-rule="nonzero">
        <path d="M19.486 12.393a2.445 2.445 0 0 0-.77-1.325 2.45 2.45 0 0 0-1.371-.63c-1.642-.178-4.118-.267-7.428-.267-3.31 0-5.781.09-7.414.268a2.429 2.429 0 0 0-1.379.629 2.542 2.542 0 0 0-.776 1.325C.116 13.428 0 14.989 0 17.077c0 2.123.116 3.685.348 4.684.116.526.373.968.77 1.325s.854.562 1.371.616c1.642.187 4.118.28 7.428.28 3.31 0 5.787-.093 7.428-.28a2.342 2.342 0 0 0 1.365-.616 2.54 2.54 0 0 0 .776-1.325c.232-1.035.348-2.596.348-4.684 0-2.124-.116-3.685-.348-4.684zM5.662 13.745H4.23v7.614H2.89v-7.614H1.486v-1.258h4.176v1.258zm3.613 7.614H8.084v-.722c-.482.544-.937.816-1.365.816-.41 0-.67-.165-.776-.495-.072-.214-.108-.54-.108-.977v-5.233h1.191v4.872c0 .285.005.441.014.468.027.187.12.281.281.281.24 0 .495-.187.763-.562v-5.059h1.191v6.611zm4.55-1.98c0 .65-.04 1.097-.12 1.338-.152.49-.468.736-.95.736-.428 0-.843-.245-1.245-.736v.643h-1.19v-8.873h1.19v2.904c.384-.482.799-.723 1.245-.723.482 0 .798.25.95.75.08.232.12.673.12 1.325v2.636zm4.524-1.098h-2.396v1.165c0 .615.205.923.616.923.294 0 .473-.16.535-.482.018-.089.027-.361.027-.816h1.218v.174c0 .437-.01.696-.027.776a1.62 1.62 0 0 1-.281.723c-.321.473-.804.71-1.446.71-.615 0-1.097-.228-1.445-.683-.259-.33-.388-.848-.388-1.553v-2.315c0-.705.125-1.223.374-1.553.349-.455.826-.682 1.433-.682.598 0 1.07.227 1.418.682.242.33.362.848.362 1.553v1.378z"/>
        <path d="M12.112 15.752c-.205 0-.406.098-.602.295v4.028c.196.196.397.294.602.294.348 0 .522-.299.522-.897V16.65c0-.598-.174-.897-.522-.897zM16.555 15.752c-.401 0-.602.304-.602.91v.616h1.205v-.616c0-.607-.201-.91-.603-.91zM4.886 5.34v3.627h1.338V5.34L7.843 0H6.478l-.91 3.52L4.618 0H3.199c.25.75.54 1.584.87 2.503.42 1.23.692 2.177.817 2.837zM9.636 9.06c.616 0 1.089-.227 1.419-.682.25-.33.375-.857.375-1.58V4.458c0-.714-.126-1.236-.375-1.566-.33-.455-.803-.683-1.419-.683-.598 0-1.066.228-1.405.683-.25.33-.375.852-.375 1.566v2.342c0 .713.125 1.24.375 1.579.34.455.807.683 1.405.683zm-.575-4.844c0-.616.192-.924.575-.924.384 0 .576.308.576.924v2.81c0 .625-.192.937-.576.937-.383 0-.575-.312-.575-.937v-2.81zM13.316 9.06c.447 0 .906-.276 1.38-.83v.737h1.217V2.289h-1.218v5.098c-.268.384-.522.576-.763.576-.16 0-.254-.098-.281-.295-.009-.017-.013-.174-.013-.468V2.289H12.42v5.273c0 .455.036.789.107 1.003.116.33.379.496.79.496z"/>
    </g>
</svg>
