<svg xmlns="http://www.w3.org/2000/svg" width="22" height="27" viewBox="0 0 22 27">
    <path fill="#222A32" fill-rule="nonzero" d="M20.972 4.008h-2.879V1.055c0-.583-.46-1.055-1.028-1.055H1.028C.46 0 0 .472 0 1.055v20.882c0 .583.46 1.055 1.028 1.055h2.879V25.947c0 .578.46 1.056 1.035 1.053h16.03C21.54 27 22 26.528 22 25.945V5.062c0-.582-.46-1.054-1.028-1.054zM2.056 20.883V2.109h13.981v18.774H2.057zm3.907 3.615v-1.506h4.556l-4.556 1.506zm13.98.393h-8.462l5.886-1.945c.424-.134.733-.548.726-1.023V6.117h1.85v18.774zM14.188 6.275c0 .583-.46 1.055-1.028 1.055H4.935a1.042 1.042 0 0 1-1.028-1.055c0-.582.46-1.054 1.028-1.054h8.224c.568 0 1.028.472 1.028 1.054zm0 5.221c0 .583-.46 1.055-1.028 1.055H4.935a1.042 1.042 0 0 1-1.028-1.055c0-.582.46-1.055 1.028-1.055h8.224c.568 0 1.028.473 1.028 1.055zm0 5.22c0 .583-.46 1.055-1.028 1.055H4.935a1.042 1.042 0 0 1-1.028-1.054c0-.583.46-1.055 1.028-1.055h8.224c.568 0 1.028.472 1.028 1.055z"/>
</svg>
