<svg width="22px" height="22px" viewBox="0 0 22 22" version="1.1" xmlns="http://www.w3.org/2000/svg" xmlns:xlink="http://www.w3.org/1999/xlink">
    <g id="Symbols" stroke="none" stroke-width="1" fill="none" fill-rule="evenodd">
        <g id="footer/desktop" transform="translate(-1367.000000, -306.000000)" fill="#FFFFFF" fill-rule="nonzero">
            <g id="icons/instagram" transform="translate(1367.000000, 306.000000)">
                <path d="M16.5,0 L5.5,0 C2.47526855,0 0,2.47419434 0,5.5 L0,16.5 C0,19.5247314 2.47526855,22 5.5,22 L16.5,22 C19.5247314,22 22,19.5247314 22,16.5 L22,5.5 C22,2.47419434 19.5247314,0 16.5,0 Z M11.5,15 C9.01441378,15 7,12.9846834 7,10.5001318 C7,8.0144728 9.01441378,6 11.5,6 C13.9844788,6 16,8.0144728 16,10.5001318 C16,12.9846834 13.9844788,15 11.5,15 Z M16.5,7 C15.6707813,7 15,6.32828125 15,5.5 C15,4.67171875 15.6707812,4 16.5,4 C17.3292187,4 18,4.67171875 18,5.5 C18,6.32828125 17.3292187,7 16.5,7 Z" id="Shape"></path>
            </g>
        </g>
    </g>
</svg>