<svg width="25px" height="18px" viewBox="0 0 25 18" version="1.1" xmlns="http://www.w3.org/2000/svg" xmlns:xlink="http://www.w3.org/1999/xlink">
    <!-- Generator: Sketch 57.1 (83088) - https://sketch.com -->
    <title>mail</title>
    <desc>Created with Sketch.</desc>
    <g id="Page-1" stroke="none" stroke-width="1" fill="none" fill-rule="evenodd">
        <g id="mail" fill="#1A1A1A" fill-rule="nonzero">
            <polygon id="Path" points="22.933 0 12.11 9.33 1.284 0"></polygon>
            <path d="M24.217,16.259 C24.239,16.553 24.135,16.842 23.933,17.049 C23.733809,17.2556099 23.4518929,17.3610988 23.166,17.336 L1.052,17.336 C0.777114159,17.3698046 0.501625885,17.2779752 0.302,17.086 C0.0989109211,16.8897994 -0.0106243779,16.6161431 0.001,16.334 L0.001,1.624 L0.001,1.413 L2.422,3.487 L11.431,11.253 C11.6046759,11.4456633 11.8516131,11.5560587 12.111,11.557 C12.3703869,11.5560587 12.6173241,11.4456633 12.791,11.253 L23.878,1.693 L24.217,1.423 L24.217,16.259 Z" id="Path"></path>
        </g>
    </g>
</svg>
