<svg width="13px" height="24px" viewBox="0 0 13 24" version="1.1" xmlns="http://www.w3.org/2000/svg" xmlns:xlink="http://www.w3.org/1999/xlink">
    <!-- Generator: Sketch 52.3 (67297) - http://www.bohemiancoding.com/sketch -->
    <title>Path</title>
    <desc>Created with Sketch.</desc>
    <g id="Symbols" stroke="none" stroke-width="1" fill="none" fill-rule="evenodd">
        <g id="icons/facebook" fill="#343A40" fill-rule="nonzero">
            <path d="M12.487001,0.00499360195 L9.37473862,0 C5.87821853,0 3.61861365,2.3182797 3.61861365,5.90643238 L3.61861365,8.62969321 L0.489372991,8.62969321 C0.218969445,8.62969321 1.79412041e-13,8.84891233 1.79412041e-13,9.11931588 L1.79412041e-13,13.0650105 C1.79412041e-13,13.335414 0.219219125,13.5543834 0.489372991,13.5543834 L3.61861365,13.5543834 L3.61861365,23.510627 C3.61861365,23.7810306 3.8375831,24 4.10798664,24 L8.19075559,24 C8.46115914,24 8.68012859,23.7807809 8.68012859,23.510627 L8.68012859,13.5543834 L12.3389407,13.5543834 C12.6093443,13.5543834 12.8283137,13.335414 12.8283137,13.0650105 L12.8298118,9.11931588 C12.8298118,8.98948223 12.778128,8.86514154 12.6864954,8.77325926 C12.5948628,8.68137699 12.4700228,8.62969321 12.3401891,8.62969321 L8.68012859,8.62969321 L8.68012859,6.32115103 C8.68012859,5.21157267 8.94453981,4.64829437 10.3899379,4.64829437 L12.4865017,4.64754533 C12.7566555,4.64754533 12.975625,4.42832621 12.975625,4.15817234 L12.975625,0.494366593 C12.975625,0.224462408 12.7569052,0.00549296214 12.487001,0.00499360195 Z" id="Path"></path>
        </g>
    </g>
</svg>